<svg xmlns="http://www.w3.org/2000/svg" width="129" height="40" viewBox="0 0 129 40" fill="none"><g clip-path="url(#clip0_2201_1077)"><path fill-rule="evenodd" clip-rule="evenodd" d="M13.7146 0.503525C11.4582 0.503525 9.2943 1.378 7.69881 2.93458L0 10.4456V13.8836C0 16.3126 1.06944 18.4979 2.77401 20.0157C1.06944 21.5336 0 23.7188 0 26.1478V29.5859L7.69881 37.0969C9.2943 38.6535 11.4582 39.5279 13.7146 39.5279C16.2043 39.5279 18.4442 38.4846 20 36.8216C21.5558 38.4846 23.7957 39.5279 26.2854 39.5279C28.5418 39.5279 30.7057 38.6535 32.3012 37.0969L40 29.5859V26.1478C40 23.7188 38.9306 21.5336 37.226 20.0157C38.9306 18.4979 40 16.3126 40 13.8836V10.4456L32.3012 2.93458C30.7057 1.378 28.5418 0.503525 26.2854 0.503525C23.7957 0.503525 21.5558 1.54688 20 3.20987C18.4442 1.54688 16.2043 0.503525 13.7146 0.503525ZM25.7588 20.0157C25.6629 19.9303 25.5688 19.8426 25.4766 19.7527L20 14.4097L14.5234 19.7527C14.4312 19.8426 14.3371 19.9303 14.2412 20.0157C14.3371 20.1011 14.4312 20.1888 14.5234 20.2787L20 25.6218L25.4766 20.2787C25.5688 20.1888 25.6629 20.1011 25.7588 20.0157ZM22.2222 29.5859V31.2278C22.2222 33.4171 24.0414 35.1919 26.2854 35.1919C27.363 35.1919 28.3965 34.7742 29.1585 34.0308L35.5556 27.7898V26.1478C35.5556 23.9585 33.7364 22.1837 31.4924 22.1837C30.4148 22.1837 29.3813 22.6014 28.6193 23.3448L22.2222 29.5859ZM17.7778 29.5859L11.3807 23.3448C10.6187 22.6014 9.58524 22.1837 8.50762 22.1837C6.26359 22.1837 4.44444 23.9585 4.44444 26.1478V27.7898L10.8415 34.0308C11.6035 34.7742 12.637 35.1919 13.7146 35.1919C15.9586 35.1919 17.7778 33.4171 17.7778 31.2278V29.5859ZM17.7778 8.80364V10.4456L11.3807 16.6866C10.6187 17.43 9.58524 17.8477 8.50762 17.8477C6.26359 17.8477 4.44444 16.0729 4.44444 13.8836V12.2417L10.8415 6.00061C11.6035 5.25721 12.637 4.83957 13.7146 4.83957C15.9586 4.83957 17.7778 6.61434 17.7778 8.80364ZM28.6193 16.6866L22.2222 10.4456V8.80364C22.2222 6.61434 24.0414 4.83957 26.2854 4.83957C27.363 4.83957 28.3965 5.25721 29.1585 6.00061L35.5556 12.2417V13.8836C35.5556 16.0729 33.7364 17.8477 31.4924 17.8477C30.4148 17.8477 29.3813 17.43 28.6193 16.6866Z" fill="white"></path></g><path d="M49.785 17C49.631 17 49.554 16.916 49.554 16.748V3.497C49.554 3.329 49.631 3.245 49.785 3.245H53.691C55.511 3.245 56.848 3.63 57.702 4.4C58.57 5.156 59.004 6.269 59.004 7.739C59.004 9.181 58.563 10.287 57.681 11.057C56.799 11.813 55.476 12.191 53.712 12.191H52.074V16.748C52.074 16.916 51.99 17 51.822 17H49.785ZM52.074 10.049H53.67C54.622 10.049 55.329 9.867 55.791 9.503C56.253 9.139 56.484 8.558 56.484 7.76C56.484 6.92 56.253 6.318 55.791 5.954C55.329 5.59 54.615 5.408 53.649 5.408H52.074V10.049ZM66.5765 17.252C64.8265 17.252 63.4895 16.818 62.5655 15.95C61.6415 15.082 61.1795 13.787 61.1795 12.065V3.497C61.1795 3.329 61.2565 3.245 61.4105 3.245H63.4475C63.5315 3.245 63.5945 3.266 63.6365 3.308C63.6785 3.35 63.6995 3.413 63.6995 3.497V12.023C63.6995 12.989 63.9375 13.738 64.4135 14.27C64.8895 14.788 65.6105 15.047 66.5765 15.047C67.5425 15.047 68.2635 14.788 68.7395 14.27C69.2155 13.738 69.4535 12.989 69.4535 12.023V3.497C69.4535 3.329 69.5305 3.245 69.6845 3.245H71.7215C71.8895 3.245 71.9735 3.329 71.9735 3.497V12.107C71.9735 13.773 71.5045 15.047 70.5665 15.929C69.6285 16.811 68.2985 17.252 66.5765 17.252ZM75.1942 17C75.0402 17 74.9632 16.916 74.9632 16.748V3.497C74.9632 3.329 75.0402 3.245 75.1942 3.245H79.3732C81.0252 3.245 82.2642 3.525 83.0902 4.085C83.9302 4.645 84.3502 5.499 84.3502 6.647C84.3502 7.445 84.1682 8.082 83.8042 8.558C83.4542 9.034 82.8802 9.412 82.0822 9.692V9.755C83.0202 9.923 83.7272 10.287 84.2032 10.847C84.6932 11.393 84.9382 12.135 84.9382 13.073C84.9382 14.445 84.4972 15.446 83.6152 16.076C82.7332 16.692 81.3192 17 79.3732 17H75.1942ZM77.4832 14.9H79.4362C80.5002 14.9 81.2632 14.753 81.7252 14.459C82.1872 14.151 82.4182 13.64 82.4182 12.926C82.4182 12.226 82.1802 11.715 81.7042 11.393C81.2422 11.071 80.4932 10.91 79.4572 10.91H77.4832V14.9ZM77.4832 8.999H79.3102C80.1922 8.999 80.8292 8.845 81.2212 8.537C81.6272 8.229 81.8302 7.753 81.8302 7.109C81.8302 6.479 81.6202 6.024 81.2002 5.744C80.7802 5.464 80.0942 5.324 79.1422 5.324H77.4832V8.999ZM101.34 17C101.284 17 101.228 16.993 101.172 16.979C101.116 16.951 101.067 16.916 101.025 16.874L93.7795 9.923C93.0795 9.251 92.5685 8.614 92.2465 8.012C91.9245 7.396 91.7635 6.759 91.7635 6.101C91.7635 5.051 92.0715 4.274 92.6875 3.77C93.3035 3.252 94.1995 2.993 95.3755 2.993C96.4535 2.993 97.2865 3.245 97.8745 3.749C98.4625 4.239 98.7565 4.946 98.7565 5.87C98.7565 6.332 98.6515 6.787 98.4415 7.235C98.2315 7.669 97.9235 8.11 97.5175 8.558C97.1255 9.006 96.6215 9.454 96.0055 9.902L94.5565 8.579C94.9905 8.271 95.3545 7.977 95.6485 7.697C95.9425 7.417 96.1595 7.144 96.2995 6.878C96.4395 6.612 96.5095 6.339 96.5095 6.059C96.5095 5.681 96.4115 5.394 96.2155 5.198C96.0335 5.002 95.7255 4.904 95.2915 4.904C94.8435 4.904 94.5145 5.016 94.3045 5.24C94.1085 5.45 94.0105 5.758 94.0105 6.164C94.0105 6.528 94.1295 6.913 94.3675 7.319C94.6055 7.725 94.9835 8.18 95.5015 8.684L103.881 16.685C103.965 16.755 103.993 16.825 103.965 16.895C103.937 16.965 103.867 17 103.755 17H101.34ZM95.5015 17.252C94.4655 17.252 93.6115 17.098 92.9395 16.79C92.2815 16.468 91.7915 16.034 91.4695 15.488C91.1475 14.928 90.9865 14.291 90.9865 13.577C90.9865 13.073 91.0565 12.611 91.1965 12.191C91.3365 11.757 91.5395 11.358 91.8055 10.994C92.0855 10.616 92.4215 10.252 92.8135 9.902C93.2195 9.552 93.6885 9.195 94.2205 8.831L95.3335 10.406C94.8155 10.812 94.4025 11.176 94.0945 11.498C93.7865 11.82 93.5695 12.135 93.4435 12.443C93.3175 12.737 93.2545 13.073 93.2545 13.451C93.2545 13.997 93.4575 14.438 93.8635 14.774C94.2695 15.11 94.8715 15.278 95.6695 15.278C96.7195 15.278 97.5525 15.047 98.1685 14.585C98.7985 14.123 99.2535 13.458 99.5335 12.59C99.8275 11.708 99.9745 10.651 99.9745 9.419C99.9745 9.251 100.059 9.167 100.227 9.167H101.97C102.138 9.167 102.222 9.251 102.222 9.419C102.222 11.057 101.97 12.464 101.466 13.64C100.976 14.802 100.234 15.698 99.2395 16.328C98.2455 16.944 96.9995 17.252 95.5015 17.252ZM49.785 38C49.631 38 49.554 37.916 49.554 37.748V24.497C49.554 24.329 49.631 24.245 49.785 24.245H51.843C51.997 24.245 52.074 24.329 52.074 24.497V35.774H57.597C57.765 35.774 57.849 35.858 57.849 36.026V37.748C57.849 37.916 57.765 38 57.597 38H49.785ZM64.7308 38.252C62.8828 38.252 61.4968 37.811 60.5728 36.929C59.6488 36.033 59.1868 34.752 59.1868 33.086V29.159C59.1868 27.479 59.6488 26.198 60.5728 25.316C61.4968 24.434 62.8828 23.993 64.7308 23.993C66.5648 23.993 67.9438 24.434 68.8678 25.316C69.7918 26.198 70.2538 27.479 70.2538 29.159V33.086C70.2538 34.752 69.7918 36.033 68.8678 36.929C67.9438 37.811 66.5648 38.252 64.7308 38.252ZM64.7308 36.047C65.7248 36.047 66.4738 35.788 66.9778 35.27C67.4818 34.738 67.7338 33.968 67.7338 32.96V29.285C67.7338 28.277 67.4818 27.514 66.9778 26.996C66.4738 26.464 65.7248 26.198 64.7308 26.198C63.7368 26.198 62.9808 26.464 62.4628 26.996C61.9588 27.514 61.7068 28.277 61.7068 29.285V32.96C61.7068 33.968 61.9588 34.738 62.4628 35.27C62.9808 35.788 63.7368 36.047 64.7308 36.047ZM78.4095 38.252C76.6595 38.252 75.3225 37.818 74.3985 36.95C73.4745 36.082 73.0125 34.787 73.0125 33.065V24.497C73.0125 24.329 73.0895 24.245 73.2435 24.245H75.2805C75.3645 24.245 75.4275 24.266 75.4695 24.308C75.5115 24.35 75.5325 24.413 75.5325 24.497V33.023C75.5325 33.989 75.7705 34.738 76.2465 35.27C76.7225 35.788 77.4435 36.047 78.4095 36.047C79.3755 36.047 80.0965 35.788 80.5725 35.27C81.0485 34.738 81.2865 33.989 81.2865 33.023V24.497C81.2865 24.329 81.3635 24.245 81.5175 24.245H83.5545C83.7225 24.245 83.8065 24.329 83.8065 24.497V33.107C83.8065 34.773 83.3375 36.047 82.3995 36.929C81.4615 37.811 80.1315 38.252 78.4095 38.252ZM87.0272 38C86.8732 38 86.7962 37.916 86.7962 37.748V24.497C86.7962 24.329 86.8732 24.245 87.0272 24.245H90.0092C90.1492 24.245 90.2472 24.301 90.3032 24.413L93.6842 31.238C93.9222 31.7 94.1392 32.148 94.3352 32.582C94.5452 33.016 94.7342 33.429 94.9022 33.821C95.0702 34.213 95.2172 34.577 95.3432 34.913H95.4062C95.3922 34.633 95.3782 34.332 95.3642 34.01C95.3502 33.688 95.3362 33.359 95.3222 33.023C95.3082 32.687 95.3012 32.358 95.3012 32.036C95.3012 31.714 95.3012 31.413 95.3012 31.133V24.497C95.3012 24.329 95.3782 24.245 95.5322 24.245H97.5062C97.6742 24.245 97.7582 24.329 97.7582 24.497V37.748C97.7582 37.916 97.6742 38 97.5062 38H94.5662C94.4262 38 94.3282 37.944 94.2722 37.832L90.9962 31.238C90.7862 30.818 90.5762 30.391 90.3662 29.957C90.1702 29.509 89.9742 29.068 89.7782 28.634C89.5962 28.2 89.4212 27.787 89.2532 27.395H89.1902C89.2042 27.717 89.2112 28.046 89.2112 28.382C89.2252 28.718 89.2322 29.054 89.2322 29.39C89.2462 29.726 89.2532 30.062 89.2532 30.398C89.2532 30.734 89.2532 31.07 89.2532 31.406V37.748C89.2532 37.916 89.1692 38 89.0012 38H87.0272ZM105.695 38.252C104.673 38.252 103.777 38.056 103.007 37.664C102.237 37.258 101.642 36.67 101.222 35.9C100.802 35.13 100.592 34.185 100.592 33.065V29.18C100.592 27.5 101.082 26.219 102.062 25.337C103.056 24.441 104.414 23.993 106.136 23.993C107.368 23.993 108.404 24.189 109.244 24.581C110.098 24.973 110.721 25.519 111.113 26.219C111.519 26.905 111.659 27.696 111.533 28.592C111.519 28.76 111.435 28.844 111.281 28.844L109.244 28.823C109.076 28.823 108.999 28.739 109.013 28.571C109.041 28.067 108.95 27.64 108.74 27.29C108.544 26.926 108.236 26.653 107.816 26.471C107.396 26.289 106.857 26.198 106.199 26.198C105.177 26.198 104.407 26.45 103.889 26.954C103.371 27.444 103.112 28.207 103.112 29.243V33.002C103.112 34.052 103.364 34.822 103.868 35.312C104.386 35.802 105.149 36.047 106.157 36.047C107.137 36.047 107.886 35.823 108.404 35.375C108.922 34.913 109.181 34.248 109.181 33.38V32.708H106.346C106.178 32.708 106.094 32.624 106.094 32.456V31.049C106.094 30.895 106.178 30.818 106.346 30.818H111.344C111.414 30.818 111.47 30.839 111.512 30.881C111.554 30.923 111.575 30.979 111.575 31.049V34.913C111.575 35.389 111.582 35.872 111.596 36.362C111.624 36.852 111.673 37.307 111.743 37.727C111.771 37.811 111.757 37.881 111.701 37.937C111.659 37.979 111.603 38 111.533 38H109.895C109.825 38 109.769 37.986 109.727 37.958C109.685 37.916 109.65 37.86 109.622 37.79C109.594 37.622 109.566 37.419 109.538 37.181C109.524 36.943 109.51 36.712 109.496 36.488H109.454C109.216 36.852 108.915 37.167 108.551 37.433C108.201 37.699 107.788 37.902 107.312 38.042C106.836 38.182 106.297 38.252 105.695 38.252ZM114.938 38C114.784 38 114.707 37.916 114.707 37.748V24.497C114.707 24.329 114.784 24.245 114.938 24.245H122.981C123.135 24.245 123.212 24.329 123.212 24.497V26.219C123.212 26.387 123.135 26.471 122.981 26.471H117.227V29.978H122.477C122.631 29.978 122.708 30.062 122.708 30.23V31.847C122.708 32.015 122.631 32.099 122.477 32.099H117.227V35.774H122.981C123.135 35.774 123.212 35.858 123.212 36.026V37.748C123.212 37.916 123.135 38 122.981 38H114.938Z" fill="white"></path><defs><clipPath id="clip0_2201_1077"><rect width="40" height="40" fill="white"></rect></clipPath></defs></svg>